<svg xmlns="http://www.w3.org/2000/svg" width="20" height="23.558" viewBox="0 0 20 23.558"><path d="M23.6,8.54a.225.225,0,0,1,0-.095.2.2,0,0,1,0-.083V8.255l-.071-.178h0a.568.568,0,0,0-.107-.13l-.107-.095h-.059L18.593,4.9h0L14.187,2.18A1.007,1.007,0,0,0,13.844,2h-.095a.971.971,0,0,0-.32,0h-.118a1.338,1.338,0,0,0-.391.154L4.073,7.663l-.107.083-.107.095-.118.083-.059.071h0l-.071.178V8.35a.817.817,0,0,0,0,.237V18.926a1.184,1.184,0,0,0,.557,1.007l8.882,5.5h0l.178.071h.095a1.019,1.019,0,0,0,.616,0h.095l.178-.071h0l8.811-5.412a1.184,1.184,0,0,0,.557-1.007V8.67A.643.643,0,0,0,23.6,8.54ZM13.548,4.572l2.108,1.3-6.62,4.1-2.12-1.3ZM12.363,22.337,5.85,18.358V10.79l6.514,4.027Zm1.184-9.6L11.286,11.37l6.62-4.11L20.18,8.67Zm7.7,5.59-6.514,4.05V14.816l6.514-4.027Z" transform="translate(-3.603 -1.989)" fill="currentColor"/></svg>