<svg xmlns="http://www.w3.org/2000/svg" width="33.653" height="33.653" viewBox="0 0 33.653 33.653"><path d="M27.812,7.822h0a2.019,2.019,0,1,0,2.019,2.019A2.019,2.019,0,0,0,27.812,7.822Zm7.74,4.072a12.771,12.771,0,0,0-.774-4.089,8.312,8.312,0,0,0-1.952-2.978,7.908,7.908,0,0,0-2.978-1.935A12.283,12.283,0,0,0,25.759,2.1C23.975,2,23.4,2,18.826,2s-5.149,0-6.932.1a12.283,12.283,0,0,0-4.089.791A8.043,8.043,0,0,0,4.827,4.827,7.908,7.908,0,0,0,2.892,7.805,12.283,12.283,0,0,0,2.1,11.894C2,13.678,2,14.25,2,18.826s0,5.149.1,6.933a12.283,12.283,0,0,0,.791,4.089,7.908,7.908,0,0,0,1.935,2.978,8.043,8.043,0,0,0,2.978,1.935,12.283,12.283,0,0,0,4.089.791c1.784.1,2.356.1,6.932.1s5.149,0,6.932-.1a12.283,12.283,0,0,0,4.089-.791,7.908,7.908,0,0,0,2.978-1.935,8.161,8.161,0,0,0,1.952-2.978,12.771,12.771,0,0,0,.774-4.089c0-1.784.1-2.356.1-6.933S35.653,13.678,35.552,11.894ZM32.523,25.557a9.44,9.44,0,0,1-.572,3.13,5.149,5.149,0,0,1-1.262,1.935,5.368,5.368,0,0,1-1.935,1.262,9.44,9.44,0,0,1-3.13.572c-1.683.084-2.305.1-6.731.1s-5.048,0-6.731-.1a9.641,9.641,0,0,1-3.264-.5,5.5,5.5,0,0,1-1.851-1.262A5.048,5.048,0,0,1,5.8,28.754a9.322,9.322,0,0,1-.673-3.2c0-1.683-.1-2.305-.1-6.731s0-5.048.1-6.731a9.322,9.322,0,0,1,.589-3.2A5.048,5.048,0,0,1,7.048,7.048,5.283,5.283,0,0,1,8.9,5.7a9.642,9.642,0,0,1,3.2-.572c1.683,0,2.305-.1,6.731-.1s5.048,0,6.731.1a9.44,9.44,0,0,1,3.13.572,5.149,5.149,0,0,1,2,1.346A5.149,5.149,0,0,1,31.951,8.9a9.44,9.44,0,0,1,.572,3.2c.084,1.683.1,2.305.1,6.731S32.607,23.874,32.523,25.557Zm-13.7-15.363a8.615,8.615,0,1,0,6.12,2.517A8.632,8.632,0,0,0,18.826,10.194Zm0,14.235a5.6,5.6,0,1,1,5.6-5.6,5.6,5.6,0,0,1-5.6,5.6Z" transform="translate(-2 -2)" fill="currentColor" /></svg>