<svg xmlns="http://www.w3.org/2000/svg" width="37.042" height="26.028" viewBox="0 0 37.042 26.028"><path d="M38.024,13.432a14.3,14.3,0,0,0-1.531-6.949A4.913,4.913,0,0,0,33.6,4.8a131.855,131.855,0,0,0-14.084-.522,132,132,0,0,0-14.033.5A4.829,4.829,0,0,0,3.025,6.028c-1.514,1.4-1.683,3.786-1.851,5.805a81.252,81.252,0,0,0,0,10.9,16.069,16.069,0,0,0,.5,3.365A5.284,5.284,0,0,0,2.874,28.39,4.812,4.812,0,0,0,5.381,29.7a76.021,76.021,0,0,0,10.937.555c5.889.084,11.055,0,17.163-.471a4.846,4.846,0,0,0,2.574-1.312,4.19,4.19,0,0,0,1.026-1.683,17.8,17.8,0,0,0,.875-5.721C38.024,20.129,38.024,14.441,38.024,13.432ZM15.712,22.08V11.665L25.674,16.9C22.88,18.446,19.2,20.2,15.712,22.08Z" transform="translate(-0.991 -4.258)" fill="currentColor" /></svg>