<svg width="0" height="0" class="hidden">
  <symbol xmlns="http://www.w3.org/2000/svg" viewBox="0 0 39.319 26.444" id="ic_arrow">
    <g transform="translate(-52 -505.265)">
      <path d="M6.165,18.38a2.2,2.2,0,0,1,.462-.727L17.637,6.643A2.211,2.211,0,0,1,20.764,9.77L13.5,17.014h29.62a2.2,2.2,0,0,1,0,4.4H13.5l7.266,7.244a2.211,2.211,0,1,1-3.127,3.127L6.628,20.78a2.276,2.276,0,0,1-.462-2.4Z" transform="translate(46 499.27)" fill="currentColor"></path>
    </g>
  </symbol>
  <symbol xmlns="http://www.w3.org/2000/svg" viewBox="0 0 18.115 10.734" id="ic_arrow_down">
    <path d="M24.361,9.379a1.718,1.718,0,0,0-2.423,0l-6.169,6.083L9.685,9.379a1.719,1.719,0,1,0-2.423,2.44l7.286,7.286a1.718,1.718,0,0,0,2.44,0l7.372-7.286a1.718,1.718,0,0,0,0-2.44Z" transform="translate(-6.754 -8.879)" fill="currentColor"></path>
  </symbol>
  <symbol xmlns="http://www.w3.org/2000/svg" viewBox="0 0 16 20" id="ic_cart">
    <path d="M19,7H16V6A4,4,0,1,0,8,6V7H5A1,1,0,0,0,4,8V19a3,3,0,0,0,3,3H17a3,3,0,0,0,3-3V8A1,1,0,0,0,19,7ZM10,6a2,2,0,1,1,4,0V7H10Zm8,13a1,1,0,0,1-1,1H7a1,1,0,0,1-1-1V9H8v1a1,1,0,0,0,2,0V9h4v1a1,1,0,0,0,2,0V9h2Z" transform="translate(-4 -2)" fill="currentColor"></path>
  </symbol>
  <symbol xmlns="http://www.w3.org/2000/svg" viewBox="0 0 13.102 11.805" id="ic_check">
    <path d="M19578.256,1899.512a1,1,0,0,1-.746-.335l-3.434-3.855a1,1,0,1,1,1.492-1.33l2.637,2.961,6.932-8.862a1,1,0,1,1,1.574,1.232l-7.668,9.805a1,1,0,0,1-.756.384Z" transform="translate(-19573.822 -1887.707)" fill="currentColor"></path>
  </symbol>
  <symbol xmlns="http://www.w3.org/2000/svg" viewBox="0 0 16 15.998" id="ic_close">
    <path d="M15.872,13.994,21.6,8.279a1.337,1.337,0,0,0-1.892-1.892l-5.714,5.728L8.28,6.388A1.337,1.337,0,0,0,6.388,8.279l5.728,5.714L6.388,19.708A1.338,1.338,0,1,0,8.28,21.6l5.714-5.728L19.709,21.6A1.337,1.337,0,1,0,21.6,19.708Z" transform="translate(-5.994 -5.996)" fill="currentColor"></path>
  </symbol>
  <symbol xmlns="http://www.w3.org/2000/svg" viewBox="0 0 33.653 33.653" id="ic_facebook">
    <path d="M33.8,2H3.851A1.851,1.851,0,0,0,2,3.851V33.8a1.851,1.851,0,0,0,1.851,1.851h16.12V22.612H15.6V17.564h4.375V13.779A6.125,6.125,0,0,1,26.5,7.048a34.091,34.091,0,0,1,3.921.2v4.543H27.744c-2.12,0-2.524,1.01-2.524,2.473v3.248h5.048l-.656,5.048H25.22V35.653H33.8A1.851,1.851,0,0,0,35.653,33.8V3.851A1.851,1.851,0,0,0,33.8,2Z" transform="translate(-2 -2)" fill="currentColor"></path>
  </symbol>
  <symbol xmlns="http://www.w3.org/2000/svg" viewBox="0 0 19.995 17.738" id="ic_favorite">
    <path d="M20.16,5A6.29,6.29,0,0,0,12,4.36a6.27,6.27,0,0,0-8.16,9.48l6.21,6.22a2.78,2.78,0,0,0,3.9,0l6.21-6.22a6.27,6.27,0,0,0,0-8.84Zm-1.41,7.46-6.21,6.21a.76.76,0,0,1-1.08,0L5.25,12.43a4.243,4.243,0,0,1,6-6,1,1,0,0,0,1.42,0,4.271,4.271,0,0,1,6.08,6Z" transform="translate(-1.988 -3.121)" fill="currentColor"></path>
  </symbol>
  <symbol xmlns="http://www.w3.org/2000/svg" viewBox="0 0 20 23.558" id="ic_gift">
    <path d="M23.6,8.54a.225.225,0,0,1,0-.095.2.2,0,0,1,0-.083V8.255l-.071-.178h0a.568.568,0,0,0-.107-.13l-.107-.095h-.059L18.593,4.9h0L14.187,2.18A1.007,1.007,0,0,0,13.844,2h-.095a.971.971,0,0,0-.32,0h-.118a1.338,1.338,0,0,0-.391.154L4.073,7.663l-.107.083-.107.095-.118.083-.059.071h0l-.071.178V8.35a.817.817,0,0,0,0,.237V18.926a1.184,1.184,0,0,0,.557,1.007l8.882,5.5h0l.178.071h.095a1.019,1.019,0,0,0,.616,0h.095l.178-.071h0l8.811-5.412a1.184,1.184,0,0,0,.557-1.007V8.67A.643.643,0,0,0,23.6,8.54ZM13.548,4.572l2.108,1.3-6.62,4.1-2.12-1.3ZM12.363,22.337,5.85,18.358V10.79l6.514,4.027Zm1.184-9.6L11.286,11.37l6.62-4.11L20.18,8.67Zm7.7,5.59-6.514,4.05V14.816l6.514-4.027Z" transform="translate(-3.603 -1.989)" fill="currentColor"></path>
  </symbol>
  <symbol xmlns="http://www.w3.org/2000/svg" viewBox="0 0 33.653 33.653" id="ic_instagram">
    <path d="M27.812,7.822h0a2.019,2.019,0,1,0,2.019,2.019A2.019,2.019,0,0,0,27.812,7.822Zm7.74,4.072a12.771,12.771,0,0,0-.774-4.089,8.312,8.312,0,0,0-1.952-2.978,7.908,7.908,0,0,0-2.978-1.935A12.283,12.283,0,0,0,25.759,2.1C23.975,2,23.4,2,18.826,2s-5.149,0-6.932.1a12.283,12.283,0,0,0-4.089.791A8.043,8.043,0,0,0,4.827,4.827,7.908,7.908,0,0,0,2.892,7.805,12.283,12.283,0,0,0,2.1,11.894C2,13.678,2,14.25,2,18.826s0,5.149.1,6.933a12.283,12.283,0,0,0,.791,4.089,7.908,7.908,0,0,0,1.935,2.978,8.043,8.043,0,0,0,2.978,1.935,12.283,12.283,0,0,0,4.089.791c1.784.1,2.356.1,6.932.1s5.149,0,6.932-.1a12.283,12.283,0,0,0,4.089-.791,7.908,7.908,0,0,0,2.978-1.935,8.161,8.161,0,0,0,1.952-2.978,12.771,12.771,0,0,0,.774-4.089c0-1.784.1-2.356.1-6.933S35.653,13.678,35.552,11.894ZM32.523,25.557a9.44,9.44,0,0,1-.572,3.13,5.149,5.149,0,0,1-1.262,1.935,5.368,5.368,0,0,1-1.935,1.262,9.44,9.44,0,0,1-3.13.572c-1.683.084-2.305.1-6.731.1s-5.048,0-6.731-.1a9.641,9.641,0,0,1-3.264-.5,5.5,5.5,0,0,1-1.851-1.262A5.048,5.048,0,0,1,5.8,28.754a9.322,9.322,0,0,1-.673-3.2c0-1.683-.1-2.305-.1-6.731s0-5.048.1-6.731a9.322,9.322,0,0,1,.589-3.2A5.048,5.048,0,0,1,7.048,7.048,5.283,5.283,0,0,1,8.9,5.7a9.642,9.642,0,0,1,3.2-.572c1.683,0,2.305-.1,6.731-.1s5.048,0,6.731.1a9.44,9.44,0,0,1,3.13.572,5.149,5.149,0,0,1,2,1.346A5.149,5.149,0,0,1,31.951,8.9a9.44,9.44,0,0,1,.572,3.2c.084,1.683.1,2.305.1,6.731S32.607,23.874,32.523,25.557Zm-13.7-15.363a8.615,8.615,0,1,0,6.12,2.517A8.632,8.632,0,0,0,18.826,10.194Zm0,14.235a5.6,5.6,0,1,1,5.6-5.6,5.6,5.6,0,0,1-5.6,5.6Z" transform="translate(-2 -2)" fill="currentColor"></path>
  </symbol>
  <symbol xmlns="http://www.w3.org/2000/svg" viewBox="0 0 15.995 11.004" id="ic_link">
    <path d="M19.92,10.12a1,1,0,0,0-.21-.33l-3-3a1,1,0,0,0-1.42,1.42l1.3,1.29H7a3,3,0,0,0-3,3v4a1,1,0,0,0,2,0v-4a1,1,0,0,1,1-1h9.59l-1.3,1.29a1,1,0,1,0,1.42,1.42l3-3a1.034,1.034,0,0,0,.21-1.09Z" transform="translate(-4 -6.496)" fill="currentColor"></path>
  </symbol>
  <symbol xmlns="http://www.w3.org/2000/svg" viewBox="0 0 19.977 19.878" id="ic_phone">
    <path d="M20.47,9a1,1,0,1,0-1-1A1,1,0,0,0,20.47,9Zm-3,0a1,1,0,1,0-1-1A1,1,0,0,0,17.47,9Zm-3,0a1,1,0,1,0-1-1,1,1,0,0,0,1,1Zm4.44,4a3.147,3.147,0,0,1-.67-.12,9.44,9.44,0,0,1-1.31-.39,2,2,0,0,0-2.48,1l-.22.45a12.48,12.48,0,0,1-2.67-2,12.83,12.83,0,0,1-2-2.66L10,9a2,2,0,0,0,1-2.48,10.33,10.33,0,0,1-.39-1.31c-.05-.23-.09-.45-.12-.68a3,3,0,0,0-3-2.49h-3A2.988,2.988,0,0,0,1.52,5.43,19,19,0,0,0,18,21.91a2.56,2.56,0,0,0,.39,0,3,3,0,0,0,3-3v-3A3,3,0,0,0,18.91,13Zm.49,6a1,1,0,0,1-1.15,1,17.12,17.12,0,0,1-9.87-4.85A17.14,17.14,0,0,1,3.54,5.22a1.02,1.02,0,0,1,.99-1.16h3a1,1,0,0,1,1,.79q.06.41.15.81a11.12,11.12,0,0,0,.46,1.55l-1.4.65a1,1,0,0,0-.49,1.33,14.49,14.49,0,0,0,7,7,1.042,1.042,0,0,0,1.32-.52l.63-1.4a13.69,13.69,0,0,0,1.58.46c.26.06.54.11.81.15a1,1,0,0,1,.78,1Z" transform="translate(-1.493 -2.04)" fill="currentColor"></path>
  </symbol>
  <symbol xmlns="http://www.w3.org/2000/svg" viewBox="0 0 20.012 19.997" id="ic_search">
    <path d="M21.71,20.29,18,16.61A9,9,0,1,0,16.61,18l3.68,3.68a.994.994,0,1,0,1.42-1.39ZM11,18a7,7,0,1,1,7-7,7,7,0,0,1-7,7Z" transform="translate(-1.979 -1.979)" fill="currentColor"></path>
  </symbol>
  <symbol xmlns="http://www.w3.org/2000/svg" viewBox="0 0 19.902 20.012" id="ic_user">
    <path d="M15.71,12.71a6,6,0,1,0-7.42,0,10,10,0,0,0-6.22,8.18,1.006,1.006,0,1,0,2,.22,8,8,0,0,1,15.9,0,1,1,0,0,0,1,.89h.11a1,1,0,0,0,.88-1.1,10,10,0,0,0-6.25-8.19ZM12,12a4,4,0,1,1,4-4A4,4,0,0,1,12,12Z" transform="translate(-2.064 -1.995)" fill="currentColor"></path>
  </symbol>
  <symbol xmlns="http://www.w3.org/2000/svg" viewBox="0 0 19.906 20.025" id="ic_whatsapp">
    <path d="M16.6,14c-.2-.1-1.5-.7-1.7-.8a.471.471,0,0,0-.6.1c-.2.2-.6.8-.8,1-.1.2-.3.2-.5.1a8.175,8.175,0,0,1-2-1.2,11.511,11.511,0,0,1-1.4-1.7.44.44,0,0,1,.1-.5c.1-.1.2-.3.4-.4a.758.758,0,0,0,.2-.4.3.3,0,0,0,0-.4A17.776,17.776,0,0,1,9.5,8c-.1-.7-.3-.7-.5-.7H8.5a1.141,1.141,0,0,0-.6.3A2.878,2.878,0,0,0,7,9.7a5.238,5.238,0,0,0,1,2.6A10.662,10.662,0,0,0,12.2,16a7.838,7.838,0,0,0,1.4.5,2.856,2.856,0,0,0,1.6.1,2.591,2.591,0,0,0,1.7-1.2,1.672,1.672,0,0,0,.1-1.2l-.4-.2m2.5-9.1a9.968,9.968,0,0,0-15.7,12L2,22l5.3-1.4A9.953,9.953,0,0,0,12,21.8h0a9.859,9.859,0,0,0,9.9-9.9,9.74,9.74,0,0,0-2.8-7m-2.7,14A8.392,8.392,0,0,1,12,20.2h0a8.769,8.769,0,0,1-4.2-1.1l-.3-.2-3.1.8.8-3L5,16.4A8.4,8.4,0,0,1,7.7,4.9,8.135,8.135,0,0,1,19,7.5a8.252,8.252,0,0,1-2.6,11.4" transform="translate(-2 -1.975)" fill="currentColor"></path>
  </symbol>
  <symbol xmlns="http://www.w3.org/2000/svg" viewBox="0 0 37.042 26.028" id="ic_youtube">
    <path d="M38.024,13.432a14.3,14.3,0,0,0-1.531-6.949A4.913,4.913,0,0,0,33.6,4.8a131.855,131.855,0,0,0-14.084-.522,132,132,0,0,0-14.033.5A4.829,4.829,0,0,0,3.025,6.028c-1.514,1.4-1.683,3.786-1.851,5.805a81.252,81.252,0,0,0,0,10.9,16.069,16.069,0,0,0,.5,3.365A5.284,5.284,0,0,0,2.874,28.39,4.812,4.812,0,0,0,5.381,29.7a76.021,76.021,0,0,0,10.937.555c5.889.084,11.055,0,17.163-.471a4.846,4.846,0,0,0,2.574-1.312,4.19,4.19,0,0,0,1.026-1.683,17.8,17.8,0,0,0,.875-5.721C38.024,20.129,38.024,14.441,38.024,13.432ZM15.712,22.08V11.665L25.674,16.9C22.88,18.446,19.2,20.2,15.712,22.08Z" transform="translate(-0.991 -4.258)" fill="currentColor"></path>
  </symbol>
</svg>